<svg width="25" height="25" viewBox="0 0 25 25" fill="none" xmlns="http://www.w3.org/2000/svg">
<path d="M5.93261 4.375C5.24225 4.375 4.68261 3.81536 4.68261 3.125C4.68261 2.43464 5.24225 1.875 5.93261 1.875H9.375C10.7557 1.875 11.875 2.99429 11.875 4.375V8.75C11.875 10.1307 10.7557 11.25 9.375 11.25H5C3.61929 11.25 2.5 10.1307 2.5 8.75V6.06834C2.5 5.37798 3.05964 4.81834 3.75 4.81834C4.44036 4.81834 5 5.37798 5 6.06834V8.75H9.375V4.375H5.93261Z" fill="#3C3C3C"/>
<path d="M5 15V19.375H9.375V15H5ZM5 12.5H9.375C10.7557 12.5 11.875 13.6193 11.875 15V19.375C11.875 20.7557 10.7557 21.875 9.375 21.875H5C3.61929 21.875 2.5 20.7557 2.5 19.375V15C2.5 13.6193 3.61929 12.5 5 12.5Z" fill="#3C3C3C"/>
<path d="M15.625 4.375V8.75H20V4.375H15.625ZM15.625 1.875H20C21.3807 1.875 22.5 2.99429 22.5 4.375V8.75C22.5 10.1307 21.3807 11.25 20 11.25H15.625C14.2443 11.25 13.125 10.1307 13.125 8.75V4.375C13.125 2.99429 14.2443 1.875 15.625 1.875Z" fill="#3C3C3C"/>
<path d="M15.625 15V19.375H20V15H15.625ZM15.625 12.5H20C21.3807 12.5 22.5 13.6193 22.5 15V19.375C22.5 20.7557 21.3807 21.875 20 21.875H15.625C14.2443 21.875 13.125 20.7557 13.125 19.375V15C13.125 13.6193 14.2443 12.5 15.625 12.5Z" fill="#3C3C3C"/>
</svg>
