<svg width="25" height="25" viewBox="0 0 25 25" fill="none" xmlns="http://www.w3.org/2000/svg">
<g clip-path="url(#clip0_1_192)">
<path d="M22.075 16.65L20.425 14.45V10.45C20.425 7.15 18.35 4.175 15.275 3.025C15.275 1.7 14.175 0.625 12.85 0.625H12.125C10.8 0.625 9.69999 1.7 9.69999 3.05C6.62499 4.2 4.54999 7.15 4.54999 10.475V14.475L2.89999 16.675C2.37499 17.375 2.29999 18.3 2.67499 19.1C3.04999 19.9 3.84999 20.375 4.74999 20.375H8.42499C8.42499 22.6 10.25 24.425 12.475 24.425C14.7 24.425 16.525 22.625 16.525 20.375H20.2C21.075 20.375 21.875 19.875 22.275 19.1C22.675 18.275 22.6 17.35 22.075 16.65ZM12.5 22.525C11.3 22.525 10.3 21.55 10.3 20.35H14.7C14.7 21.55 13.7 22.525 12.5 22.525ZM20.625 18.225C20.575 18.3 20.475 18.475 20.225 18.475H4.77499C4.52499 18.475 4.39999 18.3 4.37499 18.225C4.32499 18.15 4.27499 17.95 4.42499 17.75L6.24999 15.3C6.37499 15.15 6.42499 14.95 6.42499 14.75V10.45C6.42499 7.725 8.27499 5.325 10.9 4.6C11.3 4.5 11.575 4.125 11.575 3.7V3.025C11.575 2.7 11.825 2.45 12.15 2.45H12.875C13.2 2.45 13.45 2.7 13.45 3.025V3.675C13.45 4.1 13.725 4.45 14.125 4.575C16.75 5.325 18.575 7.75 18.575 10.45V14.75C18.575 14.95 18.65 15.15 18.75 15.3L20.575 17.75C20.75 17.95 20.675 18.15 20.625 18.225Z" fill="#3C3C3C"/>
</g>
<defs>
<clipPath id="clip0_1_192">
<rect width="25" height="25" fill="white"/>
</clipPath>
</defs>
</svg>
